<svg width="0" height="0" class="hidden">
  <symbol fill="none" xmlns="http://www.w3.org/2000/svg" viewBox="0 0 16 12" id="check">
    <path d="M1 7L5 11L15 1" stroke="currentColor" stroke-width="2" stroke-linecap="round" stroke-linejoin="round"></path>
  </symbol>

  <symbol fill="none" xmlns="http://www.w3.org/2000/svg" viewBox="0 0 6 10" id="small-arrow">
    <path fill-rule="evenodd" clip-rule="evenodd" d="M0.292894 9.70711C-0.0976307 9.31658 -0.0976307 8.68342 0.292894 8.29289L3.58579 5L0.292893 1.70711C-0.0976311 1.31658 -0.0976311 0.683418 0.292893 0.292894C0.683417 -0.0976312 1.31658 -0.0976312 1.70711 0.292894L5.70711 4.29289C6.09763 4.68342 6.09763 5.31658 5.70711 5.70711L1.70711 9.70711C1.31658 10.0976 0.683418 10.0976 0.292894 9.70711Z" fill="currentColor"></path>
  </symbol>


  <symbol fill="none" xmlns="http://www.w3.org/2000/svg" viewBox="0 0 24 24" id="buy">
    <circle cx="12" cy="12" r="9" stroke="currentColor" stroke-width="2" stroke-linecap="round" stroke-linejoin="round"></circle>
    <path d="M14.5 9.08333L14.3563 8.96356C13.9968 8.66403 13.5438 8.5 13.0759 8.5H10.75C9.7835 8.5 9 9.2835 9 10.25V10.25C9 11.2165 9.7835 12 10.75 12H13.25C14.2165 12 15 12.7835 15 13.75V13.75C15 14.7165 14.2165 15.5 13.25 15.5H10.412C9.8913 15.5 9.39114 15.2969 9.01782 14.934L9 14.9167" stroke="currentColor" stroke-width="2" stroke-linecap="round" stroke-linejoin="round"></path>
    <path d="M12 8L12 7" stroke="currentColor" stroke-width="2" stroke-linecap="round" stroke-linejoin="round"></path>
    <path d="M12 17V16" stroke="currentColor" stroke-width="2" stroke-linecap="round" stroke-linejoin="round"></path>
  </symbol>
  <symbol fill="currentColor" version="1.1" xmlns="http://www.w3.org/2000/svg" viewBox="0 0 1024 1024" id="rent">
    <path d="M809.34912 406.17984h-82.39104l-96.1536-130.72384a83.968 83.968 0 0 0 4.56704-26.27584 85.34016 85.34016 0 1 0-170.68032 0c0 9.23648 1.8432 17.94048 4.56704 26.27584l-96.1536 130.72384h-82.39104a71.68 71.68 0 0 0-71.68 71.68v204.8a71.68 71.68 0 0 0 71.68 71.68h518.67648a71.68 71.68 0 0 0 71.68-71.68v-204.8a71.74144 71.74144 0 0 0-71.72096-71.68z m-400.52736 208.6912c3.31776 5.28384 4.95616 13.08672 4.95616 23.36768v25.53856h-26.60352v-20.76672c0-4.79232-0.24576-8.76544-0.67584-11.91936a14.78656 14.78656 0 0 0-3.52256-7.8848 13.16864 13.16864 0 0 0-6.67648-4.096 46.03904 46.03904 0 0 0-10.28096-0.90112h-36.9664v45.58848h-26.43968v-137.8304h67.76832c17.83808 0 29.92128 3.4816 36.2496 10.46528 5.5296 6.22592 8.27392 16.384 8.27392 30.49472 0 15.31904-2.048 25.37472-6.08256 30.16704-3.64544 4.44416-9.728 7.45472-18.3296 9.0112v0.53248c8.04864 0.75776 14.17216 3.50208 18.3296 8.23296z m84.15232-302.592a84.7872 84.7872 0 0 0 57.0368 22.24128 84.66432 84.66432 0 0 0 56.99584-22.24128l69.07904 93.92128h-252.19072l69.07904-93.92128z m36.37248 351.49824h-95.00672v-137.8304h94.63808v22.60992h-68.15744v34.54976h64.67584v21.48352h-64.67584v36.57728h68.52608v22.60992z m148.62336 0h-44.27776l-58.44992-115.2h-1.08544l1.47456 57.15968 0.7168 58.0608h-26.64448v-137.8304h43.9296l59.16672 115.22048h0.7168l-2.19136-115.22048h26.64448v137.80992z m119.45984-115.22048h-40.59136v115.2h-26.48064v-115.2h-40.2432v-22.60992h107.3152v22.60992z m-412.28288 4.93568c2.12992 3.11296 3.15392 8.99072 3.15392 17.67424 0 9.4208-1.29024 15.79008-3.85024 19.10784-1.96608 2.02752-4.1984 3.42016-6.67648 4.17792s-6.0416 1.1264-10.6496 1.1264h-38.07232v-47.0016h37.31456c4.83328 0 8.76544 0.28672 11.75552 0.88064a11.75552 11.75552 0 0 1 7.02464 4.03456z"></path>
  </symbol>

  <symbol fill="#currentColor" version="1.1" id="check" xmlns="http://www.w3.org/2000/svg" xmlns:xlink="http://www.w3.org/1999/xlink" xml:space="preserve" viewBox="0 0 533.973 533.973">
    <g>
      <g>
        <path d="M477.931,52.261c-12.821-12.821-33.605-12.821-46.427,0l-266.96,266.954l-62.075-62.069
			c-12.821-12.821-33.604-12.821-46.426,0L9.616,303.572c-12.821,12.821-12.821,33.604,0,46.426l85.289,85.289l46.426,46.426
			c12.821,12.821,33.611,12.821,46.426,0l46.426-46.426l290.173-290.174c12.821-12.821,12.821-33.605,0-46.426L477.931,52.261z"></path>
      </g>
    </g>
  </symbol>
</svg>